<svg xmlns="http://www.w3.org/2000/svg" version="1.1" xmlns:xlink="http://www.w3.org/1999/xlink" xmlns:svgjs="http://svgjs.dev/svgjs" width="500" height="500"><svg xmlns="http://www.w3.org/2000/svg" xmlns:xlink="http://www.w3.org/1999/xlink" width="500" zoomAndPan="magnify" viewBox="0 0 375 374.999991" height="500" preserveAspectRatio="xMidYMid meet" version="1.0"><defs><g></g><clipPath id="SvgjsClipPath1004"><path d="M 26.910156 104 L 345 104 L 345 279 L 26.910156 279 Z M 26.910156 104 " clip-rule="nonzero"></path></clipPath><clipPath id="SvgjsClipPath1003"><path d="M 37 96.164062 L 347.910156 96.164062 L 347.910156 269 L 37 269 Z M 37 96.164062 " clip-rule="nonzero"></path></clipPath></defs><g clip-path="url(#dcc97b669c)"><path fill="#f5f5f5" d="M 306.140625 104.429688 L 65.320312 110.898438 C 44.144531 110.894531 26.972656 128.066406 26.972656 149.246094 L 26.972656 195.214844 C 26.972656 216.394531 44.144531 233.5625 65.320312 233.5625 L 89.425781 233.5625 C 86.28125 248.875 77.226562 267.035156 53.675781 278.832031 C 53.675781 278.832031 103.109375 273.625 129.675781 233.5625 L 299.675781 233.5625 C 320.855469 233.5625 338.023438 216.394531 338.023438 195.214844 L 344.492188 142.777344 C 344.492188 121.597656 327.320312 104.429688 306.144531 104.429688 Z M 306.140625 104.429688 " fill-opacity="1" fill-rule="nonzero"></path></g><path fill="#18181b" d="M 309.425781 97.683594 L 76.5625 103.9375 C 56.082031 103.9375 39.480469 120.539062 39.480469 141.019531 L 39.480469 185.46875 C 39.480469 205.949219 56.082031 222.550781 76.5625 222.550781 L 99.871094 222.550781 C 96.828125 237.355469 88.070312 254.917969 65.300781 266.324219 C 65.300781 266.324219 113.101562 261.289062 138.792969 222.550781 L 303.175781 222.550781 C 323.652344 222.550781 340.253906 205.949219 340.253906 185.46875 L 346.507812 134.765625 C 346.507812 114.285156 329.90625 97.683594 309.429688 97.683594 Z M 309.425781 97.683594 " fill-opacity="1" fill-rule="nonzero"></path><g clip-path="url(#536ee44901)"><path fill="#f5f5f5" d="M 57.175781 268.703125 L 64.625 264.972656 C 82.515625 256.011719 93.730469 242.253906 97.992188 224.066406 L 76.5625 224.066406 C 55.28125 224.066406 37.96875 206.753906 37.96875 185.46875 L 37.96875 141.019531 C 37.96875 119.742188 55.269531 102.433594 76.542969 102.421875 L 309.40625 96.167969 L 309.429688 96.167969 C 330.707031 96.167969 348.023438 113.480469 348.023438 134.765625 L 348.023438 134.855469 L 348.011719 134.949219 L 341.769531 185.5625 C 341.71875 206.800781 324.425781 224.0625 303.175781 224.0625 L 139.601562 224.0625 C 133.707031 232.769531 126.230469 240.46875 117.363281 246.953125 C 110.101562 252.265625 101.898438 256.777344 92.976562 260.367188 C 77.796875 266.476562 65.957031 267.777344 65.460938 267.828125 Z M 76.5625 105.449219 C 56.949219 105.449219 40.992188 121.40625 40.992188 141.019531 L 40.992188 185.472656 C 40.992188 205.085938 56.949219 221.039062 76.5625 221.039062 L 101.726562 221.039062 L 101.355469 222.859375 C 99.550781 231.640625 96.140625 239.625 91.222656 246.585938 C 86.65625 253.050781 80.78125 258.632812 73.695312 263.261719 C 78.464844 262.167969 84.867188 260.378906 91.9375 257.527344 C 105.542969 252.039062 124.496094 241.375 137.53125 221.71875 L 137.980469 221.039062 L 303.175781 221.039062 C 322.785156 221.039062 338.742188 205.085938 338.742188 185.472656 L 338.742188 185.378906 L 338.753906 185.285156 L 344.996094 134.671875 C 344.945312 115.109375 329.019531 99.210938 309.449219 99.199219 L 76.582031 105.453125 L 76.5625 105.453125 Z M 76.5625 105.449219 " fill-opacity="1" fill-rule="nonzero"></path></g><path fill="#f5f5f5" d="M 133.164062 220.253906 C 125.585938 233.867188 112.527344 244.378906 98.054688 249.929688 C 98.054688 249.929688 97.964844 249.75 97.964844 249.75 C 104.503906 245.636719 110.863281 241.398438 116.773438 236.441406 C 122.695312 231.527344 128.003906 226.03125 132.996094 220.140625 C 132.996094 220.140625 133.164062 220.253906 133.164062 220.253906 Z M 133.164062 220.253906 " fill-opacity="1" fill-rule="nonzero"></path><path fill="#f5f5f5" d="M 251.542969 216.601562 C 238.121094 217.667969 224.660156 217.753906 211.214844 217.386719 C 206.734375 217.238281 202.25 217.027344 197.769531 216.601562 L 197.769531 216.398438 C 211.1875 215.238281 224.652344 215.277344 238.097656 215.644531 C 242.578125 215.808594 247.0625 216.003906 251.542969 216.398438 Z M 251.542969 216.601562 " fill-opacity="1" fill-rule="nonzero"></path><path fill="#f5f5f5" d="M 334.125 188.8125 C 334.636719 196.324219 330.566406 204.234375 324.277344 208.335938 C 324.277344 208.335938 324.140625 208.1875 324.140625 208.1875 C 327.484375 203.816406 330.308594 199.199219 332.1875 194.035156 C 332.828125 192.335938 333.363281 190.589844 333.925781 188.792969 C 333.925781 188.792969 334.125 188.8125 334.125 188.8125 Z M 334.125 188.8125 " fill-opacity="1" fill-rule="nonzero"></path><path fill="#f5f5f5" d="M 292.125 104.101562 C 297.878906 103.34375 303.660156 103.007812 309.449219 102.78125 C 317.558594 102.683594 325.78125 106.164062 331.023438 112.363281 C 331.023438 112.363281 330.882812 112.507812 330.882812 112.507812 C 325.234375 108.066406 318.476562 105.210938 311.324219 104.765625 C 310.761719 104.71875 310.039062 104.71875 309.472656 104.691406 C 307.132812 104.726562 304.753906 104.742188 302.414062 104.714844 C 298.988281 104.671875 295.5625 104.574219 292.128906 104.300781 C 292.128906 104.300781 292.125 104.097656 292.125 104.097656 Z M 292.125 104.101562 " fill-opacity="1" fill-rule="nonzero"></path><path fill="#f5f5f5" d="M 74.554688 109.953125 C 83.804688 108.953125 93.082031 108.703125 102.375 108.699219 C 105.464844 108.710938 108.5625 108.765625 111.660156 108.945312 C 111.660156 108.945312 111.664062 109.148438 111.664062 109.148438 C 102.421875 110.117188 93.128906 110.394531 83.84375 110.398438 C 80.753906 110.390625 77.648438 110.324219 74.566406 110.152344 L 74.550781 109.953125 Z M 74.554688 109.953125 " fill-opacity="1" fill-rule="nonzero"></path><path fill="#f5f5f5" d="M 46.769531 194.507812 C 45.300781 190.886719 44.917969 186.828125 44.910156 182.925781 C 44.867188 180.652344 44.832031 178.171875 44.828125 175.914062 C 44.808594 169.703125 44.914062 163.414062 45.433594 157.21875 C 45.433594 157.21875 45.632812 157.21875 45.632812 157.21875 C 46.277344 164.976562 46.300781 172.8125 46.195312 180.585938 C 46.179688 181.746094 46.128906 184.097656 46.089844 185.257812 C 45.980469 188.328125 46.285156 191.40625 46.960938 194.445312 Z M 46.769531 194.507812 " fill-opacity="1" fill-rule="nonzero"></path><g fill="#f5f5f5" fill-opacity="1"><g transform="translate(77.724773, 174.786867)"><g><path d="M 0.421875 6.921875 C 2.054688 6.921875 3.300781 6.53125 4.15625 5.75 C 5.019531 4.96875 5.453125 3.648438 5.453125 1.796875 L 5.453125 -18.171875 C 5.453125 -19.671875 5.328125 -21.023438 5.078125 -22.234375 C 4.828125 -23.441406 4.175781 -24.488281 3.125 -25.375 L 3.125 -25.546875 C 4.207031 -25.992188 5.28125 -26.46875 6.34375 -26.96875 C 7.414062 -27.46875 8.394531 -27.890625 9.28125 -28.234375 C 10.175781 -28.578125 10.859375 -28.75 11.328125 -28.75 C 11.804688 -28.75 12.347656 -28.566406 12.953125 -28.203125 C 13.566406 -27.847656 14.101562 -27.390625 14.5625 -26.828125 C 15.019531 -26.273438 15.25 -25.679688 15.25 -25.046875 L 15.25 3.796875 C 15.25 5.628906 14.96875 7.191406 14.40625 8.484375 C 13.851562 9.773438 13.101562 10.820312 12.15625 11.625 C 11.21875 12.425781 10.171875 13.015625 9.015625 13.390625 C 7.867188 13.765625 6.679688 13.953125 5.453125 13.953125 C 4.679688 13.203125 3.898438 12.164062 3.109375 10.84375 C 2.316406 9.53125 1.421875 8.222656 0.421875 6.921875 Z M 3.5 -33.5 L 15.546875 -33.5 L 15.546875 -32.625 L 3.5 -32.625 Z M 3.5 -33.5 "></path></g></g></g><g fill="#f5f5f5" fill-opacity="1"><g transform="translate(94.92756, 174.786867)"><g><path d="M 0.421875 -25.25 C 1.191406 -25.78125 2.078125 -26.316406 3.078125 -26.859375 C 4.078125 -27.398438 5.0625 -27.847656 6.03125 -28.203125 C 7.007812 -28.566406 7.804688 -28.75 8.421875 -28.75 C 8.859375 -28.75 9.390625 -28.554688 10.015625 -28.171875 C 10.640625 -27.785156 11.195312 -27.320312 11.6875 -26.78125 C 12.175781 -26.238281 12.421875 -25.71875 12.421875 -25.21875 L 12.421875 -10.921875 C 12.421875 -9.804688 12.65625 -8.8125 13.125 -7.9375 C 13.59375 -7.0625 14.441406 -6.625 15.671875 -6.625 C 16.523438 -6.625 17.222656 -6.898438 17.765625 -7.453125 C 18.304688 -8.015625 18.609375 -8.554688 18.671875 -9.078125 L 18.671875 -20.328125 C 18.671875 -21.390625 18.441406 -22.335938 17.984375 -23.171875 C 17.523438 -24.003906 17.015625 -24.644531 16.453125 -25.09375 L 16.453125 -25.25 C 17.234375 -25.78125 18.125 -26.316406 19.125 -26.859375 C 20.125 -27.398438 21.109375 -27.847656 22.078125 -28.203125 C 23.054688 -28.566406 23.851562 -28.75 24.46875 -28.75 C 24.90625 -28.75 25.4375 -28.554688 26.0625 -28.171875 C 26.6875 -27.785156 27.242188 -27.320312 27.734375 -26.78125 C 28.222656 -26.238281 28.46875 -25.71875 28.46875 -25.21875 L 28.46875 -9.953125 C 28.46875 -8.453125 28.59375 -7.097656 28.84375 -5.890625 C 29.09375 -4.679688 29.742188 -3.632812 30.796875 -2.75 L 30.796875 -2.578125 C 29.742188 -2.140625 28.675781 -1.671875 27.59375 -1.171875 C 26.507812 -0.671875 25.519531 -0.25 24.625 0.09375 C 23.738281 0.445312 23.0625 0.625 22.59375 0.625 C 22.113281 0.625 21.566406 0.441406 20.953125 0.078125 C 20.347656 -0.273438 19.816406 -0.738281 19.359375 -1.3125 C 18.898438 -1.882812 18.671875 -2.472656 18.671875 -3.078125 L 18.671875 -7.25 C 18.222656 -6.382812 17.671875 -5.472656 17.015625 -4.515625 C 16.367188 -3.554688 15.671875 -2.65625 14.921875 -1.8125 C 14.171875 -0.96875 13.421875 -0.28125 12.671875 0.25 C 12.273438 0.363281 11.910156 0.453125 11.578125 0.515625 C 11.242188 0.585938 10.84375 0.625 10.375 0.625 C 8.65625 0.625 7.21875 0.226562 6.0625 -0.5625 C 4.90625 -1.351562 4.039062 -2.375 3.46875 -3.625 C 2.90625 -4.875 2.625 -6.179688 2.625 -7.546875 L 2.625 -20.328125 C 2.625 -21.390625 2.394531 -22.335938 1.9375 -23.171875 C 1.476562 -24.003906 0.972656 -24.644531 0.421875 -25.09375 Z M 0.421875 -25.25 "></path></g></g></g><g fill="#f5f5f5" fill-opacity="1"><g transform="translate(125.709334, 174.786867)"><g><path d="M 21.546875 -4.171875 C 21.546875 -5.304688 21.160156 -6.234375 20.390625 -6.953125 C 19.628906 -7.679688 18.625 -8.285156 17.375 -8.765625 C 16.125 -9.253906 14.75 -9.6875 13.25 -10.0625 C 11.75 -10.4375 10.238281 -10.835938 8.71875 -11.265625 C 7.207031 -11.703125 5.828125 -12.234375 4.578125 -12.859375 C 3.328125 -13.484375 2.320312 -14.296875 1.5625 -15.296875 C 0.800781 -16.296875 0.421875 -17.546875 0.421875 -19.046875 C 0.421875 -19.847656 0.648438 -20.691406 1.109375 -21.578125 C 1.566406 -22.472656 2.160156 -23.34375 2.890625 -24.1875 C 3.628906 -25.039062 4.414062 -25.8125 5.25 -26.5 C 6.082031 -27.195312 6.894531 -27.742188 7.6875 -28.140625 C 8.476562 -28.546875 9.148438 -28.75 9.703125 -28.75 C 11.429688 -28.75 13.179688 -28.660156 14.953125 -28.484375 C 16.734375 -28.304688 18.367188 -28.03125 19.859375 -27.65625 C 21.347656 -27.28125 22.539062 -26.800781 23.4375 -26.21875 C 24.34375 -25.632812 24.796875 -24.953125 24.796875 -24.171875 C 24.796875 -23.453125 24.597656 -22.707031 24.203125 -21.9375 C 23.816406 -21.175781 23.375 -20.492188 22.875 -19.890625 C 22.375 -19.296875 21.957031 -18.859375 21.625 -18.578125 C 20.757812 -19.578125 19.804688 -20.597656 18.765625 -21.640625 C 17.722656 -22.691406 16.632812 -23.65625 15.5 -24.53125 C 14.363281 -25.40625 13.203125 -26.113281 12.015625 -26.65625 C 10.835938 -27.195312 9.679688 -27.46875 8.546875 -27.46875 C 7.878906 -27.46875 7.300781 -27.222656 6.8125 -26.734375 C 6.320312 -26.242188 6.078125 -25.640625 6.078125 -24.921875 C 6.078125 -23.867188 6.429688 -23.03125 7.140625 -22.40625 C 7.847656 -21.78125 8.789062 -21.265625 9.96875 -20.859375 C 11.15625 -20.453125 12.457031 -20.09375 13.875 -19.78125 C 15.289062 -19.476562 16.695312 -19.132812 18.09375 -18.75 C 19.5 -18.363281 20.789062 -17.859375 21.96875 -17.234375 C 23.15625 -16.609375 24.101562 -15.785156 24.8125 -14.765625 C 25.519531 -13.753906 25.875 -12.457031 25.875 -10.875 C 25.875 -8.738281 25.429688 -6.929688 24.546875 -5.453125 C 23.660156 -3.984375 22.503906 -2.800781 21.078125 -1.90625 C 19.660156 -1.019531 18.132812 -0.378906 16.5 0.015625 C 14.863281 0.421875 13.296875 0.625 11.796875 0.625 C 10.628906 0.625 9.421875 0.46875 8.171875 0.15625 C 6.921875 -0.144531 5.765625 -0.550781 4.703125 -1.0625 C 3.648438 -1.570312 2.789062 -2.164062 2.125 -2.84375 C 1.457031 -3.53125 1.125 -4.25 1.125 -5 C 1.125 -5.414062 1.28125 -5.90625 1.59375 -6.46875 C 1.914062 -7.039062 2.328125 -7.625 2.828125 -8.21875 C 3.328125 -8.820312 3.851562 -9.363281 4.40625 -9.84375 C 4.96875 -10.332031 5.472656 -10.71875 5.921875 -11 C 6.773438 -9.945312 7.75 -8.890625 8.84375 -7.828125 C 9.945312 -6.773438 11.085938 -5.8125 12.265625 -4.9375 C 13.453125 -4.0625 14.617188 -3.359375 15.765625 -2.828125 C 16.921875 -2.304688 17.972656 -2.046875 18.921875 -2.046875 C 19.554688 -2.046875 20.148438 -2.234375 20.703125 -2.609375 C 21.265625 -2.984375 21.546875 -3.503906 21.546875 -4.171875 Z M 21.546875 -4.171875 "></path></g></g></g><g fill="#f5f5f5" fill-opacity="1"><g transform="translate(151.992534, 174.786867)"><g><path d="M 2.25 -27.921875 L -0.421875 -27.921875 L -0.421875 -28.75 C 0.890625 -29.164062 2.28125 -29.859375 3.75 -30.828125 C 5.21875 -31.804688 6.660156 -32.953125 8.078125 -34.265625 C 9.492188 -35.585938 10.742188 -37 11.828125 -38.5 L 12.046875 -38.5 L 12.046875 -28.75 L 14.703125 -28.75 L 14.703125 -27.921875 L 12.046875 -27.921875 L 12.046875 -7.796875 C 12.046875 -6.765625 12.28125 -5.820312 12.75 -4.96875 C 13.21875 -4.125 13.71875 -3.484375 14.25 -3.046875 L 14.25 -2.875 C 13.5 -2.34375 12.613281 -1.804688 11.59375 -1.265625 C 10.582031 -0.722656 9.597656 -0.273438 8.640625 0.078125 C 7.679688 0.441406 6.882812 0.625 6.25 0.625 C 5.832031 0.625 5.300781 0.425781 4.65625 0.03125 C 4.019531 -0.351562 3.457031 -0.820312 2.96875 -1.375 C 2.488281 -1.925781 2.25 -2.441406 2.25 -2.921875 Z M 2.25 -27.921875 "></path></g></g></g><g fill="#f5f5f5" fill-opacity="1"><g transform="translate(167.112663, 174.786867)"><g></g></g></g><g fill="#f5f5f5" fill-opacity="1"><g transform="translate(177.525981, 174.786867)"><g><path d="M 0.421875 -23.46875 C 1.640625 -24.15625 2.84375 -24.910156 4.03125 -25.734375 C 5.226562 -26.554688 6.328125 -27.265625 7.328125 -27.859375 C 8.328125 -28.453125 9.148438 -28.75 9.796875 -28.75 C 10.484375 -28.75 11.054688 -28.472656 11.515625 -27.921875 C 11.972656 -27.367188 12.382812 -26.675781 12.75 -25.84375 C 13.113281 -25.007812 13.460938 -24.175781 13.796875 -23.34375 C 14.210938 -22.394531 14.675781 -21.285156 15.1875 -20.015625 C 15.695312 -18.753906 16.21875 -17.46875 16.75 -16.15625 C 17.28125 -14.851562 17.765625 -13.648438 18.203125 -12.546875 C 18.703125 -11.347656 19.160156 -10.25 19.578125 -9.25 C 19.992188 -8.25 20.351562 -7.445312 20.65625 -6.84375 C 20.96875 -6.25 21.207031 -5.953125 21.375 -5.953125 C 21.601562 -5.953125 21.804688 -6.289062 21.984375 -6.96875 C 22.160156 -7.65625 22.289062 -8.570312 22.375 -9.71875 C 22.457031 -10.875 22.476562 -12.164062 22.4375 -13.59375 C 22.394531 -15.03125 22.253906 -16.484375 22.015625 -17.953125 C 21.785156 -19.429688 21.441406 -20.847656 20.984375 -22.203125 C 20.523438 -23.566406 19.925781 -24.753906 19.1875 -25.765625 C 18.445312 -26.785156 17.535156 -27.519531 16.453125 -27.96875 L 16.453125 -28.125 L 30.671875 -28.125 L 21.25 -2.875 C 21.25 -2.875 20.988281 -2.695312 20.46875 -2.34375 C 19.957031 -2 19.332031 -1.59375 18.59375 -1.125 C 17.863281 -0.65625 17.132812 -0.25 16.40625 0.09375 C 15.6875 0.445312 15.132812 0.625 14.75 0.625 C 13.96875 0.625 13.21875 -0.00390625 12.5 -1.265625 C 11.78125 -2.535156 10.929688 -4.378906 9.953125 -6.796875 C 9.515625 -7.929688 9.003906 -9.226562 8.421875 -10.6875 C 7.835938 -12.144531 7.265625 -13.570312 6.703125 -14.96875 C 6.148438 -16.375 5.679688 -17.566406 5.296875 -18.546875 C 5.179688 -18.816406 5.003906 -19.207031 4.765625 -19.71875 C 4.535156 -20.238281 4.222656 -20.769531 3.828125 -21.3125 C 3.441406 -21.851562 2.960938 -22.316406 2.390625 -22.703125 C 1.828125 -23.097656 1.171875 -23.296875 0.421875 -23.296875 Z M 0.421875 -23.46875 "></path></g></g></g><g fill="#f5f5f5" fill-opacity="1"><g transform="translate(208.599305, 174.786867)"><g><path d="M 2.75 -18.171875 C 2.75 -19.671875 2.625 -21.023438 2.375 -22.234375 C 2.125 -23.441406 1.472656 -24.488281 0.421875 -25.375 L 0.421875 -25.546875 C 1.503906 -25.992188 2.578125 -26.46875 3.640625 -26.96875 C 4.710938 -27.46875 5.691406 -27.890625 6.578125 -28.234375 C 7.472656 -28.578125 8.15625 -28.75 8.625 -28.75 C 9.09375 -28.75 9.632812 -28.566406 10.25 -28.203125 C 10.863281 -27.847656 11.398438 -27.390625 11.859375 -26.828125 C 12.316406 -26.273438 12.546875 -25.679688 12.546875 -25.046875 L 12.546875 -6.5 C 12.546875 -4.96875 12.632812 -3.765625 12.8125 -2.890625 C 12.988281 -2.015625 13.203125 -1.390625 13.453125 -1.015625 C 13.703125 -0.640625 13.914062 -0.40625 14.09375 -0.3125 C 14.28125 -0.21875 14.375 -0.171875 14.375 -0.171875 L 14.375 0 L 0.921875 0 L 0.921875 -0.171875 C 0.921875 -0.171875 1.007812 -0.21875 1.1875 -0.3125 C 1.363281 -0.40625 1.578125 -0.640625 1.828125 -1.015625 C 2.078125 -1.390625 2.289062 -2.015625 2.46875 -2.890625 C 2.65625 -3.765625 2.75 -4.96875 2.75 -6.5 Z M 0.953125 -32.625 L 0.953125 -33.5 L 13 -33.5 L 13 -32.625 Z M 0.953125 -32.625 "></path></g></g></g><g fill="#f5f5f5" fill-opacity="1"><g transform="translate(223.386226, 174.786867)"><g><path d="M 2.75 -31.71875 C 2.75 -33.21875 2.625 -34.570312 2.375 -35.78125 C 2.125 -36.988281 1.472656 -38.035156 0.421875 -38.921875 L 0.421875 -39.09375 C 1.503906 -39.53125 2.578125 -40 3.640625 -40.5 C 4.710938 -41 5.691406 -41.421875 6.578125 -41.765625 C 7.472656 -42.117188 8.15625 -42.296875 8.625 -42.296875 C 9.09375 -42.296875 9.632812 -42.113281 10.25 -41.75 C 10.863281 -41.394531 11.398438 -40.9375 11.859375 -40.375 C 12.316406 -39.820312 12.546875 -39.226562 12.546875 -38.59375 L 12.546875 -20.328125 C 12.878906 -21.191406 13.34375 -22.109375 13.9375 -23.078125 C 14.53125 -24.054688 15.179688 -24.972656 15.890625 -25.828125 C 16.597656 -26.691406 17.300781 -27.394531 18 -27.9375 C 18.695312 -28.476562 19.304688 -28.75 19.828125 -28.75 C 21.441406 -28.75 22.816406 -28.347656 23.953125 -27.546875 C 25.097656 -26.742188 26.03125 -25.679688 26.75 -24.359375 C 27.476562 -23.035156 28.015625 -21.582031 28.359375 -20 C 28.703125 -18.414062 28.875 -16.847656 28.875 -15.296875 C 28.875 -13.398438 28.582031 -11.515625 28 -9.640625 C 27.414062 -7.765625 26.601562 -6.050781 25.5625 -4.5 C 24.519531 -2.945312 23.3125 -1.703125 21.9375 -0.765625 C 20.5625 0.160156 19.082031 0.625 17.5 0.625 C 16.945312 0.625 16.21875 0.101562 15.3125 -0.9375 C 14.40625 -1.976562 13.484375 -3.359375 12.546875 -5.078125 L 12.546875 -3.703125 C 12.546875 -3.117188 12.484375 -2.539062 12.359375 -1.96875 C 12.234375 -1.40625 11.992188 -0.9375 11.640625 -0.5625 C 11.296875 -0.1875 10.773438 0 10.078125 0 L 0.921875 0 L 0.921875 -0.171875 C 0.921875 -0.171875 1.007812 -0.21875 1.1875 -0.3125 C 1.363281 -0.40625 1.578125 -0.640625 1.828125 -1.015625 C 2.078125 -1.390625 2.289062 -2.015625 2.46875 -2.890625 C 2.65625 -3.765625 2.75 -4.96875 2.75 -6.5 Z M 12.546875 -6.125 C 12.679688 -6.09375 12.929688 -6.078125 13.296875 -6.078125 C 13.960938 -6.078125 14.648438 -6.328125 15.359375 -6.828125 C 16.066406 -7.328125 16.71875 -7.988281 17.3125 -8.8125 C 17.90625 -9.632812 18.382812 -10.535156 18.75 -11.515625 C 19.113281 -12.503906 19.296875 -13.5 19.296875 -14.5 C 19.296875 -15.613281 19.175781 -16.671875 18.9375 -17.671875 C 18.695312 -18.671875 18.289062 -19.492188 17.71875 -20.140625 C 17.15625 -20.796875 16.375 -21.125 15.375 -21.125 C 14.34375 -21.125 13.613281 -20.664062 13.1875 -19.75 C 12.757812 -18.832031 12.546875 -17.804688 12.546875 -16.671875 Z M 12.546875 -6.125 "></path></g></g></g><g fill="#f5f5f5" fill-opacity="1"><g transform="translate(253.085013, 174.786867)"><g><path d="M 1.25 -13.625 C 1.25 -15.457031 1.628906 -17.285156 2.390625 -19.109375 C 3.160156 -20.929688 4.222656 -22.410156 5.578125 -23.546875 C 6.492188 -24.296875 7.53125 -24.988281 8.6875 -25.625 C 9.84375 -26.269531 10.972656 -26.820312 12.078125 -27.28125 C 13.191406 -27.738281 14.15625 -28.09375 14.96875 -28.34375 C 15.789062 -28.59375 16.316406 -28.71875 16.546875 -28.71875 C 18.597656 -28.71875 20.410156 -28.285156 21.984375 -27.421875 C 23.554688 -26.554688 24.789062 -25.429688 25.6875 -24.046875 C 26.59375 -22.660156 27.046875 -21.160156 27.046875 -19.546875 C 27.046875 -18.179688 26.617188 -16.945312 25.765625 -15.84375 C 24.921875 -14.75 23.585938 -13.882812 21.765625 -13.25 C 19.953125 -12.613281 17.570312 -12.296875 14.625 -12.296875 L 11.5 -12.296875 C 12.414062 -11.128906 13.546875 -10.210938 14.890625 -9.546875 C 16.242188 -8.878906 17.695312 -8.546875 19.25 -8.546875 C 20.613281 -8.546875 21.796875 -8.78125 22.796875 -9.25 C 23.796875 -9.71875 24.6875 -10.46875 25.46875 -11.5 C 25.882812 -11.382812 26.257812 -11.035156 26.59375 -10.453125 C 26.925781 -9.867188 27.09375 -9.191406 27.09375 -8.421875 C 27.09375 -6.671875 26.582031 -5.109375 25.5625 -3.734375 C 24.550781 -2.359375 23.175781 -1.28125 21.4375 -0.5 C 19.695312 0.28125 17.742188 0.671875 15.578125 0.671875 C 13.640625 0.671875 11.800781 0.300781 10.0625 -0.4375 C 8.320312 -1.175781 6.789062 -2.203125 5.46875 -3.515625 C 4.15625 -4.835938 3.125 -6.359375 2.375 -8.078125 C 1.625 -9.804688 1.25 -11.65625 1.25 -13.625 Z M 13.875 -27.09375 C 13.007812 -27.09375 12.269531 -26.847656 11.65625 -26.359375 C 11.050781 -25.867188 10.550781 -25.242188 10.15625 -24.484375 C 9.769531 -23.722656 9.488281 -22.914062 9.3125 -22.0625 C 9.132812 -21.21875 9.046875 -20.421875 9.046875 -19.671875 C 9.046875 -18.390625 9.210938 -17.1875 9.546875 -16.0625 C 9.878906 -14.9375 10.347656 -13.914062 10.953125 -13 C 12.179688 -13.164062 13.320312 -13.566406 14.375 -14.203125 C 15.425781 -14.847656 16.285156 -15.722656 16.953125 -16.828125 C 17.617188 -17.941406 17.953125 -19.265625 17.953125 -20.796875 C 17.953125 -21.679688 17.804688 -22.609375 17.515625 -23.578125 C 17.222656 -24.554688 16.769531 -25.382812 16.15625 -26.0625 C 15.550781 -26.75 14.789062 -27.09375 13.875 -27.09375 Z M 13.875 -27.09375 "></path></g></g></g><g fill="#f5f5f5" fill-opacity="1"><g transform="translate(280.576171, 174.786867)"><g><path d="M 21.546875 -4.171875 C 21.546875 -5.304688 21.160156 -6.234375 20.390625 -6.953125 C 19.628906 -7.679688 18.625 -8.285156 17.375 -8.765625 C 16.125 -9.253906 14.75 -9.6875 13.25 -10.0625 C 11.75 -10.4375 10.238281 -10.835938 8.71875 -11.265625 C 7.207031 -11.703125 5.828125 -12.234375 4.578125 -12.859375 C 3.328125 -13.484375 2.320312 -14.296875 1.5625 -15.296875 C 0.800781 -16.296875 0.421875 -17.546875 0.421875 -19.046875 C 0.421875 -19.847656 0.648438 -20.691406 1.109375 -21.578125 C 1.566406 -22.472656 2.160156 -23.34375 2.890625 -24.1875 C 3.628906 -25.039062 4.414062 -25.8125 5.25 -26.5 C 6.082031 -27.195312 6.894531 -27.742188 7.6875 -28.140625 C 8.476562 -28.546875 9.148438 -28.75 9.703125 -28.75 C 11.429688 -28.75 13.179688 -28.660156 14.953125 -28.484375 C 16.734375 -28.304688 18.367188 -28.03125 19.859375 -27.65625 C 21.347656 -27.28125 22.539062 -26.800781 23.4375 -26.21875 C 24.34375 -25.632812 24.796875 -24.953125 24.796875 -24.171875 C 24.796875 -23.453125 24.597656 -22.707031 24.203125 -21.9375 C 23.816406 -21.175781 23.375 -20.492188 22.875 -19.890625 C 22.375 -19.296875 21.957031 -18.859375 21.625 -18.578125 C 20.757812 -19.578125 19.804688 -20.597656 18.765625 -21.640625 C 17.722656 -22.691406 16.632812 -23.65625 15.5 -24.53125 C 14.363281 -25.40625 13.203125 -26.113281 12.015625 -26.65625 C 10.835938 -27.195312 9.679688 -27.46875 8.546875 -27.46875 C 7.878906 -27.46875 7.300781 -27.222656 6.8125 -26.734375 C 6.320312 -26.242188 6.078125 -25.640625 6.078125 -24.921875 C 6.078125 -23.867188 6.429688 -23.03125 7.140625 -22.40625 C 7.847656 -21.78125 8.789062 -21.265625 9.96875 -20.859375 C 11.15625 -20.453125 12.457031 -20.09375 13.875 -19.78125 C 15.289062 -19.476562 16.695312 -19.132812 18.09375 -18.75 C 19.5 -18.363281 20.789062 -17.859375 21.96875 -17.234375 C 23.15625 -16.609375 24.101562 -15.785156 24.8125 -14.765625 C 25.519531 -13.753906 25.875 -12.457031 25.875 -10.875 C 25.875 -8.738281 25.429688 -6.929688 24.546875 -5.453125 C 23.660156 -3.984375 22.503906 -2.800781 21.078125 -1.90625 C 19.660156 -1.019531 18.132812 -0.378906 16.5 0.015625 C 14.863281 0.421875 13.296875 0.625 11.796875 0.625 C 10.628906 0.625 9.421875 0.46875 8.171875 0.15625 C 6.921875 -0.144531 5.765625 -0.550781 4.703125 -1.0625 C 3.648438 -1.570312 2.789062 -2.164062 2.125 -2.84375 C 1.457031 -3.53125 1.125 -4.25 1.125 -5 C 1.125 -5.414062 1.28125 -5.90625 1.59375 -6.46875 C 1.914062 -7.039062 2.328125 -7.625 2.828125 -8.21875 C 3.328125 -8.820312 3.851562 -9.363281 4.40625 -9.84375 C 4.96875 -10.332031 5.472656 -10.71875 5.921875 -11 C 6.773438 -9.945312 7.75 -8.890625 8.84375 -7.828125 C 9.945312 -6.773438 11.085938 -5.8125 12.265625 -4.9375 C 13.453125 -4.0625 14.617188 -3.359375 15.765625 -2.828125 C 16.921875 -2.304688 17.972656 -2.046875 18.921875 -2.046875 C 19.554688 -2.046875 20.148438 -2.234375 20.703125 -2.609375 C 21.265625 -2.984375 21.546875 -3.503906 21.546875 -4.171875 Z M 21.546875 -4.171875 "></path></g></g></g></svg><style>@media (prefers-color-scheme: light) { :root { filter: none; } }
@media (prefers-color-scheme: dark) { :root { filter: none; } }
</style></svg>