<svg xmlns="http://www.w3.org/2000/svg" xmlns:xlink="http://www.w3.org/1999/xlink" width="410" zoomAndPan="magnify" viewBox="0 0 307.5 187.499995" height="250" preserveAspectRatio="xMidYMid meet" version="1.0"><defs><g/><clipPath id="eec9f1b23b"><path d="M 4.578125 16 L 300 16 L 300 177.847656 L 4.578125 177.847656 Z M 4.578125 16 " clip-rule="nonzero"/></clipPath><clipPath id="a1bf429bcb"><path d="M 14 8.800781 L 302.285156 8.800781 L 302.285156 169 L 14 169 Z M 14 8.800781 " clip-rule="nonzero"/></clipPath></defs><g clip-path="url(#eec9f1b23b)"><path fill="#f5f5f5" d="M 263.53125 16.464844 L 40.195312 22.464844 C 20.554688 22.460938 4.628906 38.386719 4.628906 58.027344 L 4.628906 100.660156 C 4.628906 120.304688 20.554688 136.226562 40.195312 136.226562 L 62.550781 136.226562 C 59.632812 150.425781 51.234375 167.265625 29.394531 178.210938 C 29.394531 178.210938 75.238281 173.378906 99.878906 136.226562 L 257.535156 136.226562 C 277.175781 136.226562 293.097656 120.300781 293.097656 100.660156 L 299.097656 52.03125 C 299.097656 32.386719 283.175781 16.464844 263.535156 16.464844 Z M 263.53125 16.464844 " fill-opacity="1" fill-rule="nonzero"/></g><path fill="#18181b" d="M 266.578125 10.207031 L 50.617188 16.007812 C 31.625 16.007812 16.226562 31.40625 16.226562 50.398438 L 16.226562 91.625 C 16.226562 110.617188 31.625 126.011719 50.617188 126.011719 L 72.234375 126.011719 C 69.414062 139.742188 61.292969 156.027344 40.175781 166.609375 C 40.175781 166.609375 84.503906 161.9375 108.328125 126.011719 L 260.78125 126.011719 C 279.773438 126.011719 295.167969 110.617188 295.167969 91.625 L 300.96875 44.597656 C 300.96875 25.605469 285.574219 10.207031 266.578125 10.207031 Z M 266.578125 10.207031 " fill-opacity="1" fill-rule="nonzero"/><g clip-path="url(#a1bf429bcb)"><path fill="#f5f5f5" d="M 32.640625 168.816406 L 39.546875 165.355469 C 56.140625 157.042969 66.542969 144.285156 70.492188 127.417969 L 50.617188 127.417969 C 30.882812 127.417969 14.824219 111.359375 14.824219 91.625 L 14.824219 50.398438 C 14.824219 30.667969 30.871094 14.617188 50.597656 14.605469 L 266.558594 8.804688 L 266.578125 8.804688 C 286.316406 8.804688 302.371094 24.859375 302.371094 44.597656 L 302.371094 44.683594 L 302.363281 44.769531 L 296.574219 91.710938 C 296.523438 111.40625 280.488281 127.414062 260.78125 127.414062 L 109.082031 127.414062 C 103.617188 135.488281 96.683594 142.628906 88.457031 148.644531 C 81.722656 153.570312 74.113281 157.753906 65.84375 161.082031 C 51.761719 166.75 40.78125 167.953125 40.324219 168.003906 L 32.640625 168.8125 Z M 50.617188 17.414062 C 32.429688 17.414062 17.632812 32.210938 17.632812 50.398438 L 17.632812 91.625 C 17.632812 109.8125 32.429688 124.609375 50.617188 124.609375 L 73.957031 124.609375 L 73.609375 126.296875 C 71.9375 134.441406 68.773438 141.847656 64.214844 148.304688 C 59.980469 154.296875 54.53125 159.476562 47.960938 163.765625 C 52.382812 162.753906 58.320312 161.09375 64.878906 158.449219 C 77.496094 153.359375 95.074219 143.46875 107.164062 125.238281 L 107.578125 124.609375 L 260.78125 124.609375 C 278.96875 124.609375 293.765625 109.8125 293.765625 91.625 L 293.765625 91.539062 L 293.777344 91.453125 L 299.566406 44.515625 C 299.519531 26.371094 284.75 11.625 266.597656 11.613281 L 50.636719 17.414062 Z M 50.617188 17.414062 " fill-opacity="1" fill-rule="nonzero"/></g><path fill="#f5f5f5" d="M 103.113281 123.882812 C 96.082031 136.507812 83.972656 146.257812 70.550781 151.402344 C 70.550781 151.402344 70.46875 151.234375 70.46875 151.234375 C 76.53125 147.421875 82.429688 143.488281 87.910156 138.894531 C 93.402344 134.335938 98.328125 129.238281 102.957031 123.777344 C 102.957031 123.777344 103.113281 123.882812 103.113281 123.882812 Z M 103.113281 123.882812 " fill-opacity="1" fill-rule="nonzero"/><path fill="#f5f5f5" d="M 212.894531 120.496094 C 200.449219 121.484375 187.96875 121.5625 175.496094 121.222656 C 171.339844 121.085938 167.183594 120.886719 163.027344 120.496094 L 163.027344 120.308594 C 175.46875 119.230469 187.957031 119.265625 200.429688 119.609375 C 204.582031 119.757812 208.738281 119.941406 212.894531 120.308594 Z M 212.894531 120.496094 " fill-opacity="1" fill-rule="nonzero"/><path fill="#f5f5f5" d="M 289.484375 94.722656 C 289.957031 101.691406 286.183594 109.027344 280.351562 112.828125 C 280.351562 112.828125 280.222656 112.691406 280.222656 112.691406 C 283.324219 108.640625 285.945312 104.359375 287.6875 99.566406 C 288.28125 97.992188 288.777344 96.371094 289.296875 94.703125 C 289.296875 94.703125 289.484375 94.722656 289.484375 94.722656 Z M 289.484375 94.722656 " fill-opacity="1" fill-rule="nonzero"/><path fill="#f5f5f5" d="M 250.53125 16.160156 C 255.867188 15.460938 261.230469 15.148438 266.597656 14.9375 C 274.117188 14.847656 281.746094 18.074219 286.605469 23.824219 C 286.605469 23.824219 286.476562 23.957031 286.476562 23.957031 C 281.238281 19.835938 274.972656 17.191406 268.339844 16.777344 C 267.816406 16.730469 267.148438 16.730469 266.621094 16.707031 C 264.449219 16.742188 262.242188 16.757812 260.074219 16.730469 C 256.898438 16.691406 253.71875 16.601562 250.535156 16.347656 C 250.535156 16.347656 250.53125 16.160156 250.53125 16.160156 Z M 250.53125 16.160156 " fill-opacity="1" fill-rule="nonzero"/><path fill="#f5f5f5" d="M 48.757812 21.585938 C 57.335938 20.664062 65.9375 20.429688 74.554688 20.425781 C 77.425781 20.433594 80.292969 20.488281 83.167969 20.65625 C 83.167969 20.65625 83.171875 20.84375 83.171875 20.84375 C 74.601562 21.742188 65.984375 22 57.371094 22 C 54.503906 21.992188 51.625 21.929688 48.765625 21.773438 L 48.753906 21.589844 Z M 48.757812 21.585938 " fill-opacity="1" fill-rule="nonzero"/><path fill="#f5f5f5" d="M 22.988281 100.003906 C 21.625 96.644531 21.273438 92.882812 21.265625 89.261719 C 21.226562 87.15625 21.191406 84.855469 21.1875 82.761719 C 21.167969 77 21.265625 71.167969 21.75 65.421875 C 21.75 65.421875 21.9375 65.421875 21.9375 65.421875 C 22.53125 72.617188 22.554688 79.882812 22.457031 87.09375 C 22.441406 88.171875 22.394531 90.351562 22.359375 91.429688 C 22.257812 94.273438 22.539062 97.128906 23.167969 99.949219 Z M 22.988281 100.003906 " fill-opacity="1" fill-rule="nonzero"/><g fill="#f5f5f5" fill-opacity="1"><g transform="translate(51.700709, 81.711143)"><g><path d="M 0.390625 6.421875 C 1.910156 6.421875 3.066406 6.054688 3.859375 5.328125 C 4.660156 4.609375 5.0625 3.382812 5.0625 1.65625 L 5.0625 -16.84375 C 5.0625 -18.238281 4.941406 -19.492188 4.703125 -20.609375 C 4.472656 -21.734375 3.867188 -22.707031 2.890625 -23.53125 L 2.890625 -23.6875 C 3.898438 -24.101562 4.898438 -24.539062 5.890625 -25 C 6.878906 -25.46875 7.785156 -25.859375 8.609375 -26.171875 C 9.441406 -26.492188 10.078125 -26.65625 10.515625 -26.65625 C 10.953125 -26.65625 11.453125 -26.488281 12.015625 -26.15625 C 12.585938 -25.820312 13.082031 -25.394531 13.5 -24.875 C 13.925781 -24.363281 14.140625 -23.8125 14.140625 -23.21875 L 14.140625 3.515625 C 14.140625 5.210938 13.878906 6.660156 13.359375 7.859375 C 12.847656 9.054688 12.15625 10.03125 11.28125 10.78125 C 10.40625 11.53125 9.429688 12.078125 8.359375 12.421875 C 7.296875 12.765625 6.195312 12.9375 5.0625 12.9375 C 4.34375 12.25 3.613281 11.289062 2.875 10.0625 C 2.144531 8.84375 1.316406 7.628906 0.390625 6.421875 Z M 3.25 -31.0625 L 14.40625 -31.0625 L 14.40625 -30.25 L 3.25 -30.25 Z M 3.25 -31.0625 "/></g></g></g><g fill="#f5f5f5" fill-opacity="1"><g transform="translate(67.6537, 81.711143)"><g><path d="M 0.390625 -23.421875 C 1.109375 -23.910156 1.929688 -24.40625 2.859375 -24.90625 C 3.785156 -25.40625 4.695312 -25.820312 5.59375 -26.15625 C 6.5 -26.488281 7.238281 -26.65625 7.8125 -26.65625 C 8.21875 -26.65625 8.707031 -26.472656 9.28125 -26.109375 C 9.863281 -25.753906 10.378906 -25.328125 10.828125 -24.828125 C 11.285156 -24.328125 11.515625 -23.84375 11.515625 -23.375 L 11.515625 -10.125 C 11.515625 -9.09375 11.734375 -8.171875 12.171875 -7.359375 C 12.609375 -6.546875 13.394531 -6.140625 14.53125 -6.140625 C 15.332031 -6.140625 15.984375 -6.394531 16.484375 -6.90625 C 16.984375 -7.425781 17.257812 -7.929688 17.3125 -8.421875 L 17.3125 -18.859375 C 17.3125 -19.835938 17.097656 -20.710938 16.671875 -21.484375 C 16.242188 -22.253906 15.773438 -22.847656 15.265625 -23.265625 L 15.265625 -23.421875 C 15.984375 -23.910156 16.804688 -24.40625 17.734375 -24.90625 C 18.660156 -25.40625 19.570312 -25.820312 20.46875 -26.15625 C 21.375 -26.488281 22.113281 -26.65625 22.6875 -26.65625 C 23.09375 -26.65625 23.585938 -26.472656 24.171875 -26.109375 C 24.753906 -25.753906 25.269531 -25.328125 25.71875 -24.828125 C 26.164062 -24.328125 26.390625 -23.84375 26.390625 -23.375 L 26.390625 -9.234375 C 26.390625 -7.847656 26.503906 -6.59375 26.734375 -5.46875 C 26.972656 -4.34375 27.582031 -3.367188 28.5625 -2.546875 L 28.5625 -2.390625 C 27.582031 -1.984375 26.585938 -1.546875 25.578125 -1.078125 C 24.578125 -0.617188 23.660156 -0.226562 22.828125 0.09375 C 22.003906 0.414062 21.375 0.578125 20.9375 0.578125 C 20.5 0.578125 20 0.410156 19.4375 0.078125 C 18.875 -0.253906 18.378906 -0.6875 17.953125 -1.21875 C 17.523438 -1.75 17.3125 -2.296875 17.3125 -2.859375 L 17.3125 -6.71875 C 16.894531 -5.925781 16.382812 -5.082031 15.78125 -4.1875 C 15.175781 -3.300781 14.523438 -2.460938 13.828125 -1.671875 C 13.140625 -0.890625 12.445312 -0.253906 11.75 0.234375 C 11.382812 0.335938 11.046875 0.421875 10.734375 0.484375 C 10.429688 0.546875 10.0625 0.578125 9.625 0.578125 C 8.019531 0.578125 6.679688 0.210938 5.609375 -0.515625 C 4.546875 -1.253906 3.75 -2.203125 3.21875 -3.359375 C 2.695312 -4.515625 2.4375 -5.726562 2.4375 -7 L 2.4375 -18.859375 C 2.4375 -19.835938 2.222656 -20.710938 1.796875 -21.484375 C 1.367188 -22.253906 0.898438 -22.847656 0.390625 -23.265625 Z M 0.390625 -23.421875 "/></g></g></g><g fill="#f5f5f5" fill-opacity="1"><g transform="translate(96.199154, 81.711143)"><g><path d="M 19.984375 -3.859375 C 19.984375 -4.921875 19.628906 -5.785156 18.921875 -6.453125 C 18.210938 -7.117188 17.273438 -7.675781 16.109375 -8.125 C 14.953125 -8.582031 13.675781 -8.984375 12.28125 -9.328125 C 10.894531 -9.679688 9.5 -10.054688 8.09375 -10.453125 C 6.6875 -10.847656 5.40625 -11.335938 4.25 -11.921875 C 3.09375 -12.503906 2.160156 -13.257812 1.453125 -14.1875 C 0.742188 -15.113281 0.390625 -16.269531 0.390625 -17.65625 C 0.390625 -18.40625 0.597656 -19.191406 1.015625 -20.015625 C 1.441406 -20.835938 1.992188 -21.640625 2.671875 -22.421875 C 3.359375 -23.210938 4.085938 -23.929688 4.859375 -24.578125 C 5.640625 -25.222656 6.394531 -25.726562 7.125 -26.09375 C 7.863281 -26.46875 8.488281 -26.65625 9 -26.65625 C 10.601562 -26.65625 12.226562 -26.570312 13.875 -26.40625 C 15.519531 -26.238281 17.03125 -25.976562 18.40625 -25.625 C 19.789062 -25.28125 20.898438 -24.835938 21.734375 -24.296875 C 22.566406 -23.765625 22.984375 -23.132812 22.984375 -22.40625 C 22.984375 -21.738281 22.800781 -21.050781 22.4375 -20.34375 C 22.082031 -19.632812 21.671875 -19.003906 21.203125 -18.453125 C 20.742188 -17.898438 20.359375 -17.492188 20.046875 -17.234375 C 19.253906 -18.160156 18.375 -19.101562 17.40625 -20.0625 C 16.4375 -21.03125 15.425781 -21.921875 14.375 -22.734375 C 13.320312 -23.546875 12.242188 -24.203125 11.140625 -24.703125 C 10.046875 -25.210938 8.972656 -25.46875 7.921875 -25.46875 C 7.304688 -25.46875 6.769531 -25.238281 6.3125 -24.78125 C 5.863281 -24.332031 5.640625 -23.773438 5.640625 -23.109375 C 5.640625 -22.128906 5.96875 -21.347656 6.625 -20.765625 C 7.28125 -20.191406 8.15625 -19.71875 9.25 -19.34375 C 10.34375 -18.96875 11.546875 -18.632812 12.859375 -18.34375 C 14.179688 -18.0625 15.488281 -17.738281 16.78125 -17.375 C 18.082031 -17.019531 19.28125 -16.550781 20.375 -15.96875 C 21.476562 -15.394531 22.359375 -14.632812 23.015625 -13.6875 C 23.671875 -12.75 24 -11.546875 24 -10.078125 C 24 -8.097656 23.582031 -6.425781 22.75 -5.0625 C 21.925781 -3.695312 20.859375 -2.601562 19.546875 -1.78125 C 18.234375 -0.957031 16.816406 -0.359375 15.296875 0.015625 C 13.773438 0.390625 12.320312 0.578125 10.9375 0.578125 C 9.851562 0.578125 8.726562 0.4375 7.5625 0.15625 C 6.40625 -0.125 5.335938 -0.503906 4.359375 -0.984375 C 3.378906 -1.460938 2.582031 -2.015625 1.96875 -2.640625 C 1.351562 -3.273438 1.046875 -3.941406 1.046875 -4.640625 C 1.046875 -5.023438 1.191406 -5.476562 1.484375 -6 C 1.785156 -6.53125 2.164062 -7.070312 2.625 -7.625 C 3.09375 -8.1875 3.582031 -8.691406 4.09375 -9.140625 C 4.613281 -9.585938 5.078125 -9.941406 5.484375 -10.203125 C 6.285156 -9.222656 7.191406 -8.242188 8.203125 -7.265625 C 9.222656 -6.285156 10.28125 -5.390625 11.375 -4.578125 C 12.46875 -3.765625 13.550781 -3.113281 14.625 -2.625 C 15.695312 -2.132812 16.671875 -1.890625 17.546875 -1.890625 C 18.140625 -1.890625 18.691406 -2.0625 19.203125 -2.40625 C 19.722656 -2.757812 19.984375 -3.242188 19.984375 -3.859375 Z M 19.984375 -3.859375 "/></g></g></g><g fill="#f5f5f5" fill-opacity="1"><g transform="translate(120.572859, 81.711143)"><g><path d="M 2.09375 -25.890625 L -0.390625 -25.890625 L -0.390625 -26.65625 C 0.828125 -27.039062 2.117188 -27.6875 3.484375 -28.59375 C 4.847656 -29.5 6.1875 -30.5625 7.5 -31.78125 C 8.8125 -33.007812 9.96875 -34.316406 10.96875 -35.703125 L 11.171875 -35.703125 L 11.171875 -26.65625 L 13.640625 -26.65625 L 13.640625 -25.890625 L 11.171875 -25.890625 L 11.171875 -7.21875 C 11.171875 -6.269531 11.390625 -5.398438 11.828125 -4.609375 C 12.265625 -3.828125 12.726562 -3.234375 13.21875 -2.828125 L 13.21875 -2.671875 C 12.519531 -2.179688 11.695312 -1.679688 10.75 -1.171875 C 9.8125 -0.671875 8.898438 -0.253906 8.015625 0.078125 C 7.128906 0.410156 6.390625 0.578125 5.796875 0.578125 C 5.410156 0.578125 4.921875 0.394531 4.328125 0.03125 C 3.734375 -0.320312 3.210938 -0.753906 2.765625 -1.265625 C 2.316406 -1.785156 2.09375 -2.265625 2.09375 -2.703125 Z M 2.09375 -25.890625 "/></g></g></g><g fill="#f5f5f5" fill-opacity="1"><g transform="translate(134.594498, 81.711143)"><g/></g></g><g fill="#f5f5f5" fill-opacity="1"><g transform="translate(144.25128, 81.711143)"><g><path d="M 0.390625 -21.75 C 1.523438 -22.394531 2.644531 -23.097656 3.75 -23.859375 C 4.851562 -24.617188 5.867188 -25.273438 6.796875 -25.828125 C 7.722656 -26.378906 8.484375 -26.65625 9.078125 -26.65625 C 9.722656 -26.65625 10.257812 -26.394531 10.6875 -25.875 C 11.113281 -25.363281 11.492188 -24.722656 11.828125 -23.953125 C 12.160156 -23.179688 12.484375 -22.410156 12.796875 -21.640625 C 13.179688 -20.765625 13.609375 -19.738281 14.078125 -18.5625 C 14.554688 -17.394531 15.039062 -16.203125 15.53125 -14.984375 C 16.019531 -13.773438 16.472656 -12.65625 16.890625 -11.625 C 17.347656 -10.519531 17.769531 -9.503906 18.15625 -8.578125 C 18.539062 -7.648438 18.875 -6.910156 19.15625 -6.359375 C 19.445312 -5.804688 19.671875 -5.53125 19.828125 -5.53125 C 20.023438 -5.53125 20.207031 -5.84375 20.375 -6.46875 C 20.550781 -7.101562 20.675781 -7.953125 20.75 -9.015625 C 20.820312 -10.085938 20.835938 -11.285156 20.796875 -12.609375 C 20.765625 -13.941406 20.640625 -15.289062 20.421875 -16.65625 C 20.203125 -18.019531 19.878906 -19.332031 19.453125 -20.59375 C 19.023438 -21.851562 18.46875 -22.953125 17.78125 -23.890625 C 17.101562 -24.835938 16.265625 -25.515625 15.265625 -25.921875 L 15.265625 -26.078125 L 28.4375 -26.078125 L 19.703125 -2.671875 C 19.703125 -2.671875 19.460938 -2.507812 18.984375 -2.1875 C 18.515625 -1.863281 17.9375 -1.484375 17.25 -1.046875 C 16.570312 -0.609375 15.894531 -0.226562 15.21875 0.09375 C 14.550781 0.414062 14.035156 0.578125 13.671875 0.578125 C 12.953125 0.578125 12.257812 -0.00390625 11.59375 -1.171875 C 10.925781 -2.347656 10.140625 -4.054688 9.234375 -6.296875 C 8.816406 -7.347656 8.335938 -8.550781 7.796875 -9.90625 C 7.265625 -11.257812 6.738281 -12.585938 6.21875 -13.890625 C 5.707031 -15.191406 5.269531 -16.289062 4.90625 -17.1875 C 4.800781 -17.445312 4.640625 -17.816406 4.421875 -18.296875 C 4.203125 -18.773438 3.910156 -19.265625 3.546875 -19.765625 C 3.191406 -20.265625 2.75 -20.691406 2.21875 -21.046875 C 1.695312 -21.410156 1.085938 -21.59375 0.390625 -21.59375 Z M 0.390625 -21.75 "/></g></g></g><g fill="#f5f5f5" fill-opacity="1"><g transform="translate(173.067103, 81.711143)"><g><path d="M 2.546875 -16.84375 C 2.546875 -18.238281 2.429688 -19.492188 2.203125 -20.609375 C 1.972656 -21.734375 1.367188 -22.707031 0.390625 -23.53125 L 0.390625 -23.6875 C 1.390625 -24.101562 2.382812 -24.539062 3.375 -25 C 4.375 -25.46875 5.285156 -25.859375 6.109375 -26.171875 C 6.929688 -26.492188 7.5625 -26.65625 8 -26.65625 C 8.4375 -26.65625 8.9375 -26.488281 9.5 -26.15625 C 10.070312 -25.820312 10.566406 -25.394531 10.984375 -24.875 C 11.410156 -24.363281 11.625 -23.8125 11.625 -23.21875 L 11.625 -6.03125 C 11.625 -4.613281 11.707031 -3.5 11.875 -2.6875 C 12.050781 -1.875 12.253906 -1.289062 12.484375 -0.9375 C 12.710938 -0.59375 12.910156 -0.375 13.078125 -0.28125 C 13.242188 -0.195312 13.328125 -0.15625 13.328125 -0.15625 L 13.328125 0 L 0.84375 0 L 0.84375 -0.15625 C 0.84375 -0.15625 0.925781 -0.195312 1.09375 -0.28125 C 1.269531 -0.375 1.472656 -0.59375 1.703125 -0.9375 C 1.929688 -1.289062 2.128906 -1.875 2.296875 -2.6875 C 2.460938 -3.5 2.546875 -4.613281 2.546875 -6.03125 Z M 0.890625 -30.25 L 0.890625 -31.0625 L 12.0625 -31.0625 L 12.0625 -30.25 Z M 0.890625 -30.25 "/></g></g></g><g fill="#f5f5f5" fill-opacity="1"><g transform="translate(186.779742, 81.711143)"><g><path d="M 2.546875 -29.40625 C 2.546875 -30.800781 2.429688 -32.054688 2.203125 -33.171875 C 1.972656 -34.296875 1.367188 -35.269531 0.390625 -36.09375 L 0.390625 -36.25 C 1.390625 -36.65625 2.382812 -37.085938 3.375 -37.546875 C 4.375 -38.015625 5.285156 -38.410156 6.109375 -38.734375 C 6.929688 -39.054688 7.5625 -39.21875 8 -39.21875 C 8.4375 -39.21875 8.9375 -39.050781 9.5 -38.71875 C 10.070312 -38.382812 10.566406 -37.957031 10.984375 -37.4375 C 11.410156 -36.925781 11.625 -36.375 11.625 -35.78125 L 11.625 -18.859375 C 11.9375 -19.648438 12.367188 -20.5 12.921875 -21.40625 C 13.472656 -22.3125 14.078125 -23.160156 14.734375 -23.953125 C 15.398438 -24.753906 16.050781 -25.40625 16.6875 -25.90625 C 17.332031 -26.40625 17.898438 -26.65625 18.390625 -26.65625 C 19.890625 -26.65625 21.164062 -26.28125 22.21875 -25.53125 C 23.269531 -24.789062 24.128906 -23.804688 24.796875 -22.578125 C 25.472656 -21.359375 25.972656 -20.015625 26.296875 -18.546875 C 26.617188 -17.078125 26.78125 -15.625 26.78125 -14.1875 C 26.78125 -12.425781 26.507812 -10.675781 25.96875 -8.9375 C 25.425781 -7.207031 24.671875 -5.617188 23.703125 -4.171875 C 22.734375 -2.734375 21.613281 -1.582031 20.34375 -0.71875 C 19.070312 0.144531 17.703125 0.578125 16.234375 0.578125 C 15.710938 0.578125 15.03125 0.0976562 14.1875 -0.859375 C 13.351562 -1.828125 12.5 -3.113281 11.625 -4.71875 L 11.625 -3.4375 C 11.625 -2.894531 11.566406 -2.359375 11.453125 -1.828125 C 11.335938 -1.304688 11.117188 -0.867188 10.796875 -0.515625 C 10.472656 -0.171875 9.988281 0 9.34375 0 L 0.84375 0 L 0.84375 -0.15625 C 0.84375 -0.15625 0.925781 -0.195312 1.09375 -0.28125 C 1.269531 -0.375 1.472656 -0.59375 1.703125 -0.9375 C 1.929688 -1.289062 2.128906 -1.875 2.296875 -2.6875 C 2.460938 -3.5 2.546875 -4.613281 2.546875 -6.03125 Z M 11.625 -5.6875 C 11.757812 -5.65625 11.992188 -5.640625 12.328125 -5.640625 C 12.941406 -5.640625 13.578125 -5.867188 14.234375 -6.328125 C 14.890625 -6.796875 15.492188 -7.410156 16.046875 -8.171875 C 16.609375 -8.929688 17.054688 -9.769531 17.390625 -10.6875 C 17.722656 -11.601562 17.890625 -12.523438 17.890625 -13.453125 C 17.890625 -14.484375 17.78125 -15.460938 17.5625 -16.390625 C 17.34375 -17.316406 16.96875 -18.082031 16.4375 -18.6875 C 15.914062 -19.289062 15.191406 -19.59375 14.265625 -19.59375 C 13.304688 -19.59375 12.625 -19.164062 12.21875 -18.3125 C 11.820312 -17.46875 11.625 -16.515625 11.625 -15.453125 Z M 11.625 -5.6875 "/></g></g></g><g fill="#f5f5f5" fill-opacity="1"><g transform="translate(214.320889, 81.711143)"><g><path d="M 1.15625 -12.640625 C 1.15625 -14.335938 1.507812 -16.03125 2.21875 -17.71875 C 2.925781 -19.40625 3.910156 -20.773438 5.171875 -21.828125 C 6.023438 -22.523438 6.984375 -23.171875 8.046875 -23.765625 C 9.117188 -24.359375 10.171875 -24.863281 11.203125 -25.28125 C 12.234375 -25.707031 13.128906 -26.035156 13.890625 -26.265625 C 14.648438 -26.503906 15.132812 -26.625 15.34375 -26.625 C 17.25 -26.625 18.925781 -26.222656 20.375 -25.421875 C 21.832031 -24.628906 22.976562 -23.585938 23.8125 -22.296875 C 24.65625 -21.003906 25.078125 -19.613281 25.078125 -18.125 C 25.078125 -16.863281 24.679688 -15.722656 23.890625 -14.703125 C 23.109375 -13.679688 21.875 -12.875 20.1875 -12.28125 C 18.5 -11.695312 16.289062 -11.40625 13.5625 -11.40625 L 10.671875 -11.40625 C 11.515625 -10.320312 12.5625 -9.46875 13.8125 -8.84375 C 15.0625 -8.226562 16.410156 -7.921875 17.859375 -7.921875 C 19.117188 -7.921875 20.210938 -8.140625 21.140625 -8.578125 C 22.066406 -9.015625 22.890625 -9.710938 23.609375 -10.671875 C 23.992188 -10.566406 24.335938 -10.242188 24.640625 -9.703125 C 24.953125 -9.160156 25.109375 -8.53125 25.109375 -7.8125 C 25.109375 -6.1875 24.640625 -4.734375 23.703125 -3.453125 C 22.765625 -2.179688 21.488281 -1.179688 19.875 -0.453125 C 18.269531 0.265625 16.460938 0.625 14.453125 0.625 C 12.648438 0.625 10.941406 0.28125 9.328125 -0.40625 C 7.722656 -1.09375 6.304688 -2.046875 5.078125 -3.265625 C 3.859375 -4.484375 2.898438 -5.890625 2.203125 -7.484375 C 1.503906 -9.085938 1.15625 -10.804688 1.15625 -12.640625 Z M 12.875 -25.109375 C 12.070312 -25.109375 11.382812 -24.882812 10.8125 -24.4375 C 10.25 -23.988281 9.785156 -23.410156 9.421875 -22.703125 C 9.066406 -21.992188 8.804688 -21.242188 8.640625 -20.453125 C 8.472656 -19.671875 8.390625 -18.929688 8.390625 -18.234375 C 8.390625 -17.054688 8.539062 -15.941406 8.84375 -14.890625 C 9.15625 -13.847656 9.59375 -12.90625 10.15625 -12.0625 C 11.289062 -12.207031 12.347656 -12.578125 13.328125 -13.171875 C 14.304688 -13.765625 15.101562 -14.578125 15.71875 -15.609375 C 16.34375 -16.640625 16.65625 -17.863281 16.65625 -19.28125 C 16.65625 -20.101562 16.519531 -20.960938 16.25 -21.859375 C 15.976562 -22.765625 15.554688 -23.53125 14.984375 -24.15625 C 14.421875 -24.789062 13.71875 -25.109375 12.875 -25.109375 Z M 12.875 -25.109375 "/></g></g></g><g fill="#f5f5f5" fill-opacity="1"><g transform="translate(239.814793, 81.711143)"><g><path d="M 19.984375 -3.859375 C 19.984375 -4.921875 19.628906 -5.785156 18.921875 -6.453125 C 18.210938 -7.117188 17.273438 -7.675781 16.109375 -8.125 C 14.953125 -8.582031 13.675781 -8.984375 12.28125 -9.328125 C 10.894531 -9.679688 9.5 -10.054688 8.09375 -10.453125 C 6.6875 -10.847656 5.40625 -11.335938 4.25 -11.921875 C 3.09375 -12.503906 2.160156 -13.257812 1.453125 -14.1875 C 0.742188 -15.113281 0.390625 -16.269531 0.390625 -17.65625 C 0.390625 -18.40625 0.597656 -19.191406 1.015625 -20.015625 C 1.441406 -20.835938 1.992188 -21.640625 2.671875 -22.421875 C 3.359375 -23.210938 4.085938 -23.929688 4.859375 -24.578125 C 5.640625 -25.222656 6.394531 -25.726562 7.125 -26.09375 C 7.863281 -26.46875 8.488281 -26.65625 9 -26.65625 C 10.601562 -26.65625 12.226562 -26.570312 13.875 -26.40625 C 15.519531 -26.238281 17.03125 -25.976562 18.40625 -25.625 C 19.789062 -25.28125 20.898438 -24.835938 21.734375 -24.296875 C 22.566406 -23.765625 22.984375 -23.132812 22.984375 -22.40625 C 22.984375 -21.738281 22.800781 -21.050781 22.4375 -20.34375 C 22.082031 -19.632812 21.671875 -19.003906 21.203125 -18.453125 C 20.742188 -17.898438 20.359375 -17.492188 20.046875 -17.234375 C 19.253906 -18.160156 18.375 -19.101562 17.40625 -20.0625 C 16.4375 -21.03125 15.425781 -21.921875 14.375 -22.734375 C 13.320312 -23.546875 12.242188 -24.203125 11.140625 -24.703125 C 10.046875 -25.210938 8.972656 -25.46875 7.921875 -25.46875 C 7.304688 -25.46875 6.769531 -25.238281 6.3125 -24.78125 C 5.863281 -24.332031 5.640625 -23.773438 5.640625 -23.109375 C 5.640625 -22.128906 5.96875 -21.347656 6.625 -20.765625 C 7.28125 -20.191406 8.15625 -19.71875 9.25 -19.34375 C 10.34375 -18.96875 11.546875 -18.632812 12.859375 -18.34375 C 14.179688 -18.0625 15.488281 -17.738281 16.78125 -17.375 C 18.082031 -17.019531 19.28125 -16.550781 20.375 -15.96875 C 21.476562 -15.394531 22.359375 -14.632812 23.015625 -13.6875 C 23.671875 -12.75 24 -11.546875 24 -10.078125 C 24 -8.097656 23.582031 -6.425781 22.75 -5.0625 C 21.925781 -3.695312 20.859375 -2.601562 19.546875 -1.78125 C 18.234375 -0.957031 16.816406 -0.359375 15.296875 0.015625 C 13.773438 0.390625 12.320312 0.578125 10.9375 0.578125 C 9.851562 0.578125 8.726562 0.4375 7.5625 0.15625 C 6.40625 -0.125 5.335938 -0.503906 4.359375 -0.984375 C 3.378906 -1.460938 2.582031 -2.015625 1.96875 -2.640625 C 1.351562 -3.273438 1.046875 -3.941406 1.046875 -4.640625 C 1.046875 -5.023438 1.191406 -5.476562 1.484375 -6 C 1.785156 -6.53125 2.164062 -7.070312 2.625 -7.625 C 3.09375 -8.1875 3.582031 -8.691406 4.09375 -9.140625 C 4.613281 -9.585938 5.078125 -9.941406 5.484375 -10.203125 C 6.285156 -9.222656 7.191406 -8.242188 8.203125 -7.265625 C 9.222656 -6.285156 10.28125 -5.390625 11.375 -4.578125 C 12.46875 -3.765625 13.550781 -3.113281 14.625 -2.625 C 15.695312 -2.132812 16.671875 -1.890625 17.546875 -1.890625 C 18.140625 -1.890625 18.691406 -2.0625 19.203125 -2.40625 C 19.722656 -2.757812 19.984375 -3.242188 19.984375 -3.859375 Z M 19.984375 -3.859375 "/></g></g></g></svg>